<?xml version="1.0" encoding="utf-8"?>
<svg width="500px" height="500px" viewBox="0 0 500 500" version="1.1" xmlns:xlink="http://www.w3.org/1999/xlink" xmlns="http://www.w3.org/2000/svg">
  <defs>
    <path d="M0 0L417 0L417 417L0 417L0 0Z" id="path_1" />
    <rect width="500" height="500" id="artboard_1" />
    <clipPath id="clip_1">
      <use xlink:href="#artboard_1" clip-rule="evenodd" />
    </clipPath>
    <clipPath id="mask_1">
      <use xlink:href="#path_1" />
    </clipPath>
  </defs>
  <g id="pbg" clip-path="url(#clip_1)">
    <path d="M19.999 0L480.001 0Q480.492 0 480.982 0.0240897Q481.473 0.0481793 481.961 0.0963006Q482.45 0.144422 482.935 0.216459Q483.421 0.288496 483.903 0.384275Q484.384 0.480054 484.86 0.599345Q485.337 0.718635 485.806 0.86115Q486.276 1.00366 486.738 1.16906Q487.201 1.33446 487.654 1.52233Q488.108 1.71021 488.552 1.92012Q488.995 2.13003 489.428 2.36146Q489.861 2.59289 490.283 2.84529Q490.704 3.09768 491.112 3.37044Q491.52 3.64319 491.914 3.93565Q492.309 4.22811 492.688 4.53956Q493.068 4.85102 493.431 5.18072Q493.795 5.51042 494.142 5.85757Q494.49 6.20472 494.819 6.56849Q495.149 6.93226 495.46 7.31177Q495.772 7.69128 496.064 8.08561Q496.357 8.47994 496.63 8.88815Q496.902 9.29636 497.155 9.71746Q497.407 10.1386 497.639 10.5715Q497.87 11.0045 498.08 11.4483Q498.29 11.8921 498.478 12.3457Q498.665 12.7993 498.831 13.2615Q498.996 13.7238 499.139 14.1936Q499.281 14.6634 499.401 15.1396Q499.52 15.6159 499.616 16.0974Q499.711 16.5789 499.784 17.0645Q499.856 17.5502 499.904 18.0388Q499.952 18.5273 499.976 19.0177Q500 19.5081 500 19.999L500 480.001Q500 480.492 499.976 480.982Q499.952 481.473 499.904 481.961Q499.856 482.45 499.784 482.935Q499.711 483.421 499.616 483.903Q499.52 484.384 499.401 484.86Q499.281 485.337 499.139 485.806Q498.996 486.276 498.831 486.738Q498.665 487.201 498.478 487.654Q498.29 488.108 498.08 488.552Q497.87 488.995 497.638 489.428Q497.407 489.861 497.155 490.283Q496.902 490.704 496.629 491.112Q496.357 491.52 496.064 491.914Q495.772 492.309 495.46 492.688Q495.149 493.068 494.819 493.431Q494.49 493.795 494.142 494.142Q493.795 494.49 493.431 494.819Q493.068 495.149 492.688 495.46Q492.309 495.772 491.914 496.064Q491.52 496.357 491.112 496.63Q490.704 496.902 490.282 497.155Q489.861 497.407 489.428 497.639Q488.995 497.87 488.552 498.08Q488.108 498.29 487.654 498.478Q487.201 498.665 486.738 498.831Q486.276 498.996 485.806 499.139Q485.337 499.281 484.86 499.401Q484.384 499.52 483.903 499.616Q483.421 499.711 482.935 499.784Q482.45 499.856 481.961 499.904Q481.473 499.952 480.982 499.976Q480.492 500 480.001 500L19.999 500Q19.5081 500 19.0177 499.976Q18.5273 499.952 18.0388 499.904Q17.5502 499.856 17.0645 499.784Q16.5789 499.711 16.0974 499.616Q15.6159 499.52 15.1396 499.401Q14.6634 499.281 14.1936 499.139Q13.7238 498.996 13.2615 498.831Q12.7993 498.665 12.3457 498.478Q11.8921 498.29 11.4483 498.08Q11.0045 497.87 10.5715 497.638Q10.1386 497.407 9.71746 497.155Q9.29636 496.902 8.88815 496.629Q8.47994 496.357 8.08561 496.064Q7.69128 495.772 7.31177 495.46Q6.93226 495.149 6.56849 494.819Q6.20472 494.49 5.85757 494.142Q5.51042 493.795 5.18072 493.431Q4.85102 493.068 4.53956 492.688Q4.22811 492.309 3.93565 491.914Q3.64319 491.52 3.37044 491.112Q3.09768 490.704 2.84529 490.282Q2.59289 489.861 2.36146 489.428Q2.13003 488.995 1.92012 488.552Q1.71021 488.108 1.52233 487.654Q1.33446 487.201 1.16906 486.738Q1.00366 486.276 0.86115 485.806Q0.718635 485.337 0.599345 484.86Q0.480054 484.384 0.384275 483.903Q0.288496 483.421 0.216459 482.935Q0.144422 482.45 0.0963006 481.961Q0.0481793 481.473 0.0240897 480.982Q0 480.492 0 480.001L0 19.999Q0 19.5081 0.0240897 19.0177Q0.0481793 18.5273 0.0963006 18.0388Q0.144422 17.5502 0.216459 17.0645Q0.288496 16.5789 0.384275 16.0974Q0.480054 15.6159 0.599345 15.1396Q0.718635 14.6634 0.86115 14.1936Q1.00366 13.7238 1.16906 13.2615Q1.33446 12.7993 1.52233 12.3457Q1.71021 11.8921 1.92012 11.4483Q2.13003 11.0045 2.36146 10.5715Q2.59289 10.1386 2.84529 9.71746Q3.09768 9.29636 3.37044 8.88815Q3.64319 8.47994 3.93565 8.08561Q4.22811 7.69128 4.53956 7.31177Q4.85102 6.93226 5.18072 6.56849Q5.51042 6.20472 5.85757 5.85757Q6.20472 5.51042 6.56849 5.18072Q6.93226 4.85102 7.31177 4.53956Q7.69128 4.22811 8.08561 3.93565Q8.47994 3.64319 8.88815 3.37044Q9.29636 3.09768 9.71746 2.84529Q10.1386 2.59289 10.5715 2.36146Q11.0045 2.13003 11.4483 1.92012Q11.8921 1.71021 12.3457 1.52233Q12.7993 1.33446 13.2615 1.16906Q13.7238 1.00366 14.1936 0.86115Q14.6634 0.718635 15.1396 0.599345Q15.6159 0.480054 16.0974 0.384275Q16.5789 0.288496 17.0645 0.216459Q17.5502 0.144422 18.0388 0.0963006Q18.5273 0.0481793 19.0177 0.0240897Q19.5081 0 19.999 0L19.999 0Z" id="Rechteck" fill="#ECECEC" fill-rule="evenodd" stroke="none" artboard="af4cc3eb-abc8-4e24-8160-d3e9f0678a22" />
    <g id="person-fill" transform="translate(41.72464 42)" artboard="1e9aaeb8-2216-4577-b22b-4b70ba177842">
      <path d="M0 0L417 0L417 417L0 417L0 0Z" id="Background" fill="#FFFFFF" fill-opacity="0" fill-rule="evenodd" stroke="none" />
      <path d="M104.25 333.6C104.25 333.6 83.4 333.6 83.4 312.75C83.4 291.9 104.25 229.35 208.5 229.35C312.75 229.35 333.6 291.9 333.6 312.75C333.6 333.6 312.75 333.6 312.75 333.6L104.25 333.6L104.25 333.6ZM208.5 208.5C243.045 208.5 271.05 180.495 271.05 145.95C271.05 111.405 243.046 83.4002 208.5 83.4C173.955 83.3999 145.95 111.404 145.95 145.95C145.95 180.495 173.954 208.5 208.5 208.5L208.5 208.5Z" id="Shape" fill="#333333" fill-opacity="0.69803923" fill-rule="evenodd" stroke="none" />
    </g>
  </g>
</svg>